<svg id="visual" viewBox="0 0 900 600" width="900" height="600" xmlns="http://www.w3.org/2000/svg" xmlns:xlink="http://www.w3.org/1999/xlink" version="1.1"><path d="M0 127L82 289L164 139L245 277L327 223L409 253L491 241L573 265L655 217L736 85L818 235L900 181L900 0L818 0L736 0L655 0L573 0L491 0L409 0L327 0L245 0L164 0L82 0L0 0Z" fill="#1b323a"></path><path d="M0 301L82 379L164 337L245 403L327 391L409 349L491 325L573 355L655 289L736 283L818 409L900 325L900 179L818 233L736 83L655 215L573 263L491 239L409 251L327 221L245 275L164 137L82 287L0 125Z" fill="#192e36"></path><path d="M0 391L82 457L164 379L245 439L327 469L409 397L491 391L573 433L655 367L736 361L818 481L900 391L900 323L818 407L736 281L655 287L573 353L491 323L409 347L327 389L245 401L164 335L82 377L0 299Z" fill="#172b32"></path><path d="M0 475L82 517L164 499L245 541L327 535L409 475L491 481L573 523L655 469L736 481L818 535L900 433L900 389L818 479L736 359L655 365L573 431L491 389L409 395L327 467L245 437L164 377L82 455L0 389Z" fill="#15272e"></path><path d="M0 601L82 601L164 601L245 601L327 601L409 601L491 601L573 601L655 601L736 601L818 601L900 601L900 431L818 533L736 479L655 467L573 521L491 479L409 473L327 533L245 539L164 497L82 515L0 473Z" fill="#13242a"></path></svg>