<svg version="1.2" xmlns="http://www.w3.org/2000/svg" viewBox="0 0 418 254" width="418" height="254">
	<title>New Project</title>
	<style>
		.s0 { paint-order:stroke fill markers;stroke: #ecd576;stroke-width: 10;stroke-linejoin: round;;fill: #fcf8e5 } 
		.s1 { paint-order:stroke fill markers;stroke: #ecd576;stroke-width: 8;stroke-linejoin: round;;fill: #fcf8e5 } 
	</style>
	<path id="50" class="s0" aria-label="50"  d="m108.3 25v19.7h-51.8v27.4q3.3-4.2 9.6-6.7 6.2-2.8 13.2-2.8 12.8 0 21 5.6 8.2 5.6 11.8 14.4 3.7 8.7 3.7 18.6 0 18.4-10.5 29.6-10.4 11.2-29.8 11.2-18.2 0-29.1-9.1-10.9-9.1-12.3-23.9h21.7q1.5 6.4 6.4 10.3 5.1 3.8 13 3.8 9.4 0 14.2-5.9 4.8-5.9 4.8-15.7 0-9.9-4.9-15-4.8-5.3-14.3-5.3-6.7 0-11.2 3.4-4.5 3.3-6.4 8.9h-21.4v-68.5zm38.2 57.2q0-27.7 9.9-43.4 10.1-15.7 33.3-15.7 23.2 0 33.1 15.7 10.1 15.7 10.1 43.4 0 27.8-10.1 43.6-9.9 15.9-33.1 15.9-23.2 0-33.3-15.9-9.9-15.8-9.9-43.6zm64.3 0q0-11.9-1.6-19.9-1.4-8.1-6-13.3-4.5-5.1-13.5-5.1-8.9 0-13.6 5.1-4.5 5.2-6.1 13.3-1.4 8-1.4 19.9 0 12.1 1.4 20.4 1.5 8.2 6.1 13.3 4.7 5 13.6 5 9 0 13.6-5 4.7-5.1 6.1-13.3 1.4-8.3 1.4-20.4z"/>
	<path id="%" class="s0" aria-label="%"  d="m262.3 50q0-12.2 7.1-19 7.2-6.9 18.4-6.9 11.2 0 18.2 6.9 7.2 6.8 7.2 19 0 12.3-7.2 19.2-7 6.9-18.2 6.9-11.2 0-18.4-6.9-7.1-6.9-7.1-19.2zm80.8-24h22l-62.9 112h-21.8zm-55.5 11.5q-8.8 0-8.8 12.5 0 12.6 8.8 12.6 4.3 0 6.7-3 2.4-3.2 2.4-9.6 0-12.5-9.1-12.5zm45 76.3q0-12.3 7-19 7.2-6.9 18.4-6.9 11.2 0 18.1 6.9 7 6.7 7 19 0 12.4-7 19.2-6.9 6.9-18.1 6.9-11.4 0-18.4-6.9-7-6.8-7-19.2zm25.2-12.4q-9.1 0-9.1 12.4 0 12.7 9.1 12.7 9 0 9-12.7 0-12.4-9-12.4z"/>
	<path id="Rakeback" class="s1" aria-label="Rakeback"  d="m49.7 229h-8.9l-10.4-18.1h-5.6v18.1h-7.4v-45.2h15.6q5.2 0 8.8 1.8 3.6 1.9 5.4 4.9 1.8 3.1 1.8 6.8 0 4.5-2.6 8.1-2.6 3.6-7.9 4.9zm-24.9-39.1v15.1h8.2q4.2 0 6.2-2.1 2.2-2.1 2.2-5.6 0-3.5-2.1-5.4-2.1-2-6.3-2zm40.3 21q0-5.4 2.2-9.5 2.3-4.2 6.1-6.5 3.9-2.3 8.6-2.3 4.2 0 7.3 1.7 3.2 1.6 5.1 4.1v-5.2h7.5v35.8h-7.5v-5.4q-1.9 2.6-5.1 4.3-3.3 1.7-7.4 1.7-4.6 0-8.5-2.4-3.8-2.4-6.1-6.6-2.2-4.3-2.2-9.7zm29.3 0.1q0-3.7-1.5-6.4-1.5-2.7-4-4.2-2.5-1.4-5.3-1.4-2.9 0-5.4 1.4-2.4 1.4-4 4.1-1.5 2.7-1.5 6.4 0 3.7 1.5 6.5 1.6 2.8 4 4.3 2.6 1.4 5.4 1.4 2.8 0 5.3-1.4 2.5-1.4 4-4.2 1.5-2.8 1.5-6.5zm57-17.8l-16.5 17.9 16.5 17.9h-10l-13.2-15.4v15.4h-7.5v-48.1h7.5v27.9l13-15.6zm47.2 17q0 2-0.3 3.6h-27.3q0.3 4.3 3.2 6.9 2.8 2.6 7 2.6 6 0 8.4-5h8q-1.6 5-5.9 8.1-4.2 3.2-10.5 3.2-5.1 0-9.2-2.3-4.1-2.3-6.4-6.5-2.3-4.2-2.3-9.8 0-5.5 2.2-9.6 2.3-4.3 6.3-6.5 4.1-2.3 9.4-2.3 5.1 0 9 2.2 4 2.2 6.2 6.2 2.2 4 2.2 9.2zm-27.6-2.3h19.9q-0.1-4.1-3-6.6-2.8-2.5-7-2.5-3.9 0-6.6 2.5-2.7 2.4-3.3 6.6zm51.4-9.4q1.9-2.6 5.1-4.2 3.3-1.7 7.4-1.7 4.7 0 8.6 2.3 3.8 2.2 6 6.5 2.2 4.1 2.2 9.5 0 5.4-2.2 9.7-2.2 4.2-6.1 6.6-3.8 2.4-8.5 2.4-4.2 0-7.4-1.7-3.2-1.6-5.1-4.1v5.2h-7.4v-48.1h7.4zm21.8 12.4q0-3.7-1.6-6.4-1.5-2.7-4-4.1-2.5-1.4-5.3-1.4-2.8 0-5.4 1.4-2.4 1.5-4 4.2-1.5 2.7-1.5 6.4 0 3.7 1.5 6.5 1.6 2.8 4 4.2 2.6 1.4 5.4 1.4 2.8 0 5.3-1.4 2.5-1.5 4-4.3 1.6-2.8 1.6-6.5zm21.5 0q0-5.4 2.2-9.6 2.3-4.1 6.1-6.4 3.9-2.3 8.6-2.3 4.2 0 7.3 1.7 3.2 1.6 5.1 4.1v-5.2h7.5v35.8h-7.5v-5.4q-1.9 2.6-5.1 4.3-3.3 1.7-7.4 1.7-4.7 0-8.5-2.4-3.8-2.4-6.1-6.6-2.2-4.3-2.2-9.7zm29.3 0.1q0-3.7-1.6-6.4-1.5-2.7-3.9-4.2-2.5-1.4-5.4-1.4-2.8 0-5.3 1.4-2.5 1.4-4 4.1-1.5 2.7-1.5 6.4 0 3.7 1.5 6.5 1.5 2.8 4 4.3 2.6 1.4 5.3 1.4 2.9 0 5.4-1.4 2.4-1.4 3.9-4.2 1.6-2.8 1.6-6.5zm23.9 0q0-5.5 2.2-9.7 2.2-4.2 6.2-6.5 4-2.2 9.1-2.2 6.5 0 10.7 3.1 4.3 3 5.8 8.8h-8q-1-2.7-3.1-4.2-2.1-1.5-5.4-1.5-4.5 0-7.3 3.3-2.6 3.1-2.6 8.9 0 5.8 2.6 9.1 2.8 3.2 7.3 3.2 6.4 0 8.5-5.6h8q-1.5 5.4-5.8 8.7-4.3 3.2-10.7 3.2-5.1 0-9.1-2.3-4-2.4-6.2-6.5-2.2-4.2-2.2-9.8zm81.2-17.8l-16.5 17.9 16.5 17.9h-10l-13.3-15.4v15.4h-7.4v-48.1h7.4v27.9l13-15.6z"/>
</svg>